# xmcd
#
# Track frame offsets: 
#        150
#        6974
#        11524
#        13859
#        20802
#        25490
#        27995
#        36869
#        50687
#        61434
#        75134
#        90573
#        100144
#        114047
#        130089
#        140565
#        155443
#        165944
#        176735
#        189195
#        199959
#        214011
#        227054
#        240805
#        250356
#        260186
#        271358
#        281254
#        291850
#
# Disc length: 4076 seconds
#
# Revision: 0
# Processed by: cddbd v1.5.2PL0 Copyright (c) Steve Scherf et al.
# Submitted via: ExactAudioCopy v0.95b3
#
DISCID=870fea1d
DTITLE=The Guess Who  - Just A Matter Of Time [CD2]  FLAC
DYEAR=1900
DGENRE=
TTITLE0=Shakin' Coke Ad #1
TTITLE1=Shakin' Coke Ad #2
TTITLE2=Shakin' Coke Ad #3
TTITLE3=This Time Coke Ad #1
TTITLE4=This Time Coke Ad #2
TTITLE5=This Time Coke Ad #3
TTITLE6=2 Wheel Freedom (On A Honda)
TTITLE7=I Need Your Company
TTITLE8=Mr. Nothing
TTITLE9=Very Far From Near
TTITLE10=Heygoode Hardy
TTITLE11=Somewhere Up High
TTITLE12=When Friends Fall Out (Nimbus
TTITLE13=Guess Who Blues
TTITLE14=Of A Dropping Pin (Single Version)
TTITLE15=Of A Dropping Pin ("Canned Wheat" Alternate Mix)
TTITLE16=Greeting Card (Chad Allan)
TTITLE17=Elevator (Chad Allan)
TTITLE18=Through The Looking Glass (Chad Allan)
TTITLE19=Ramona's Hourglass (Chad Allan)
TTITLE20=Blue Is The Night (The Deverons)
TTITLE21=She's Your Lover (The Deverons)
TTITLE22=Lost Love (The Deverons)
TTITLE23=Feel Alrigh  (The Deverons)
TTITLE24=Sharon (Demo) (The Deverons)
TTITLE25=Seven Long Years (Demo) (The Deverons)
TTITLE26=Hey-Ho (What You Do To Me)
TTITLE27=Hurting Each Other
TTITLE28=When Friends Fall Out (Single Version)
EXTD=
EXTT0=
EXTT1=
EXTT2=
EXTT3=
EXTT4=
EXTT5=
EXTT6=
EXTT7=
EXTT8=
EXTT9=
EXTT10=
EXTT11=
EXTT12=
EXTT13=
EXTT14=
EXTT15=
EXTT16=
EXTT17=
EXTT18=
EXTT19=
EXTT20=
EXTT21=
EXTT22=
EXTT23=
EXTT24=
EXTT25=
EXTT26=
EXTT27=
EXTT28=
PLAYORDER=
